<svg xmlns="http://www.w3.org/2000/svg" width="24" height="24" viewBox="0 0 24 24" fill="currentColor" color="currentColor"><path fill-rule="evenodd" clip-rule="evenodd" d="M2 12c0 5.515 4.485 10 10 10s10-4.485 10-10S17.515 2 12 2 2 6.485 2 12Zm1.5 0c0-4.685 3.815-8.5 8.5-8.5 4.685 0 8.5 3.815 8.5 8.5 0 4.685-3.815 8.5-8.5 8.5-4.685 0-8.5-3.815-8.5-8.5Zm3.72 3.72 8.5-8.5 1.06 1.06-8.499 8.5-1.06-1.06ZM9.5 10.5a1.5 1.5 0 1 0 0-3 1.5 1.5 0 0 0 0 3ZM16 15a1.5 1.5 0 1 1-3 0 1.5 1.5 0 0 1 3 0Z" fill="currentColor"></path></svg>
