<svg xmlns="http://www.w3.org/2000/svg" width="24" height="24" viewBox="0 0 24 24" fill="currentColor" color="currentColor"><path fill-rule="evenodd" clip-rule="evenodd" d="M12 7a2 2 0 1 0 0-4 2 2 0 0 0 0 4Zm0 7a2 2 0 1 0 0-4 2 2 0 0 0 0 4Zm2 5a2 2 0 1 1-4 0 2 2 0 0 1 4 0Zm5-5a2 2 0 1 0 0-4 2 2 0 0 0 0 4Zm2-9a2 2 0 1 1-4 0 2 2 0 0 1 4 0Zm-2 16a2 2 0 1 0 0-4 2 2 0 0 0 0 4ZM7 12a2 2 0 1 1-4 0 2 2 0 0 1 4 0ZM5 7a2 2 0 1 0 0-4 2 2 0 0 0 0 4Zm2 12a2 2 0 1 1-4 0 2 2 0 0 1 4 0Z" fill="currentColor"></path></svg>
