<svg xmlns="http://www.w3.org/2000/svg" width="24" height="24" viewBox="0 0 24 24" fill="currentColor" color="currentColor"><path fill-rule="evenodd" clip-rule="evenodd" d="M2 12c0 5.515 4.485 10 10 10s10-4.485 10-10S17.515 2 12 2 2 6.485 2 12Zm1.5 0c0-4.685 3.815-8.5 8.5-8.5 4.685 0 8.5 3.815 8.5 8.5 0 4.685-3.815 8.5-8.5 8.5-4.685 0-8.5-3.815-8.5-8.5Zm3.47 5.025c.245.245.56.37.88.37.19 0 .38-.045.56-.135l5.92-2.935 2.935-5.92a1.23 1.23 0 0 0-.235-1.44 1.23 1.23 0 0 0-1.44-.235L9.67 9.665l-2.935 5.92a1.23 1.23 0 0 0 .235 1.44Zm1.44-1.44 2.38-4.8 4.8-2.38-2.38 4.8-4.8 2.38Z" fill="currentColor"></path></svg>
