<svg xmlns="http://www.w3.org/2000/svg" width="24" height="24" viewBox="0 0 24 24" fill="currentColor" color="currentColor"><path fill-rule="evenodd" clip-rule="evenodd" d="M2 12c0 5.515 4.485 10 10 10s10-4.485 10-10S17.515 2 12 2 2 6.485 2 12Zm1.5 0c0-4.685 3.815-8.5 8.5-8.5 4.685 0 8.5 3.815 8.5 8.5 0 4.685-3.815 8.5-8.5 8.5-4.685 0-8.5-3.815-8.5-8.5Zm6.115 3.175c.245.245.565.365.885.365.32 0 .64-.12.885-.365L17.28 9.28l-1.06-1.06-5.72 5.72-2.22-2.22-1.06 1.06 2.395 2.395Z" fill="currentColor"></path></svg>
